/* XPM */
static char *dba202199ebd481894ea6906253d2d65KXqm0t7kxkpLvAQR[] = {
/* columns rows colors chars-per-pixel */
"64 64 126 2 ",
"   c #2B0A0A",
".  c #3D0B0B",
"X  c #2A1F1F",
"o  c #2D1F1D",
"O  c #2F1F1D",
"+  c #33201F",
"@  c #262626",
"#  c #302D2D",
"$  c #332D2D",
"%  c #2F3333",
"&  c #333329",
"*  c #3B2B1F",
"=  c #3E2D25",
"-  c #43322B",
";  c #4A3128",
":  c #00261E",
">  c #123316",
",  c #153516",
"<  c #13371A",
"1  c #16391A",
"2  c #183C1C",
"3  c #3E332E",
"4  c #4A361A",
"5  c #4A392F",
"6  c #4E392E",
"7  c #002C24",
"8  c #093C23",
"9  c #00352C",
"0  c #3E3A36",
"q  c #413936",
"w  c #4B3B36",
"e  c #4A3F3B",
"r  c #3D424C",
"t  c #533B34",
"y  c #453F3B",
"u  c #4B3F38",
"i  c #45453D",
"p  c #4C453D",
"a  c #4E473F",
"s  c #504A3C",
"d  c #504A44",
"f  c #534C41",
"g  c #4B4F4F",
"h  c #5B3F30",
"j  c #5B3F34",
"k  c #664837",
"l  c #664E36",
"z  c #66483B",
"x  c #5B5044",
"c  c #1F491A",
"v  c #234318",
"b  c #24441A",
"n  c #26481C",
"m  c #28491E",
"M  c #2A4C1F",
"N  c #2D5F1B",
"B  c #395B1B",
"V  c #395E1F",
"C  c #3C5F1F",
"Z  c #00442C",
"A  c #0A482B",
"S  c #155028",
"D  c #0B5633",
"F  c #2B4C20",
"G  c #305226",
"H  c #1C733C",
"J  c #3D6223",
"K  c #4D6A17",
"L  c #406B1C",
"P  c #506B17",
"I  c #506B18",
"U  c #516D18",
"Y  c #546D18",
"T  c #516E1C",
"R  c #507418",
"E  c #56731E",
"W  c #58731F",
"Q  c #5A761F",
"!  c #7A554F",
"~  c #5B5558",
"^  c #406323",
"/  c #406324",
"(  c #436726",
")  c #436927",
"_  c #456A27",
"`  c #466A28",
"'  c #496F2C",
"]  c #5A7720",
"[  c #5A5A5A",
"{  c #6B5B58",
"}  c #6B6B58",
"|  c #685E5B",
" . c #7A6958",
".. c #73685F",
"X. c #7A685E",
"o. c #7E745D",
"O. c #686769",
"+. c #806F68",
"@. c #806F78",
"#. c #857E6F",
"$. c #88807E",
"%. c #8D8069",
"&. c #917364",
"*. c #98886E",
"=. c #8B8878",
"-. c #8E897A",
";. c #919486",
":. c #988A86",
">. c #9A9A86",
",. c #B89E86",
"<. c #63A216",
"1. c #408B28",
"2. c #AE9688",
"3. c #A89688",
"4. c #BE9B8B",
"5. c #A8A6A0",
"6. c #BBA899",
"7. c #B8B8A8",
"8. c #C7C1AB",
"9. c #C2C4B7",
"0. c #DCDCB7",
"q. c #CED5CB",
"w. c #D4D6CF",
"e. c #DDDDCF",
"r. c #CED4D0",
"t. c #DED3DF",
/* pixels */
"z t z z ! ! z ! z z z z t t t t t z t z ! ! ! z ! z z z z z z z z t z t t t t z z z z z t t t t t z t z t t ! z ! z z z z z z z ",
"4.3.:.$.$.! 8.t.r.8.8.4.4.8.8.8.4.3.:.$.$.! w.t.r.8.8.4.4.:.8.8.4.3.:.$.$.z 8.t.r.w.w.4.4.4.4.4.4.3.:.$.t ! z 8.t.e.8.8.8.:.8.8.",
"3.:.3.:.u z e.5.3.3.3.3.4.8.3.3.3.:.3.:.u z e.5.3.3.3.4.5.8.5.3.3.:.3.:.u t e.5.3.3.3.4.5.5.3.3.3.5.{ :.u z ! w.5.3.3.3.4.8.5.3.",
"3.3.:.3.D D D { 3.3.3.5.5.3.3.3.3.3.:.3.O.t 8.3.3.3.4.5.3.5.3.3.3.3.:.3.O.z 8.3.3.3.4.5.3.3.3.3.| 1.H { O.! 8.o.3.3.3.5.5.5.3.3.",
"3.3.3.D D D 9 ~ { 3.3.6.$.3.3.3.3.3.3.3.D l l :.3.3.3.6.$.3.3.3.3.3.3.3.u t 8.3.3.8.3.3.5.6.$.$.d H H ~ u D D D { 3.3.6.$.3.3.3.",
"3.3.3.H D 9 Z l D { 3.$.$.3.3.3.3.3.3.H H H 9 y 3.6.$.$.$.3.3.3.3.3.3.:.u z :.3.3.6.$.$.3.$.:.d { 9 H l l 9 D D D { 3.$.$.3.3.3.",
"$.3.3.d $ ; 9 H H H :.O.O.3.3.$.$.3.3.1.H 9 l q d d $.$.:.3.3.$.$.3.3.$.u z :.$.$.$.$.:.3.3.d D D l y d $ o 9 D H { :.O.O.3.3.$.",
"O.O.u u O.4 d Z 1.1.1.u O.O.O.O.O.l l Z % *   l l l D $ O.0 0 u O.O.u u O.! $.u u u O.O.O.r H H H 9 $ $ r = d $ r u u u O.O.O.O.",
"t t z t z z = D l 1.<.; t t D D l 9 D D D Z H H H 9 l D D = t z z z z z z z t t t t t z = 1.1.1.Z + = z z z z z z z z t z z z t ",
"8.w.8.8.8.8.d l e q q d :.H H H 9 f 9 D H s 1.H 9 y 9 l H H r z 8.t.e.e.8.8.8.:.:.$.$.$.~ <.1.D l l D o.8.8.8.4.4.4.4.3.:.$.$.! ",
"8.5.3.3.3.3.{ l f { d :.~ 1.H 9 f i ~ e ~ ~ ~ ~ e i e 9 l 1.Z = w.4.4.4.3.3.4.8.3.3.$.:.3.d X * 9 H H H | 3.5.5.3.3.3.5.3.:.u z ",
"8.3.3.4.3.3.{ D D D { ~ { e X l  .~ ~ { :.:.:.:.~ ~ ~ H H H 9 ; 4.3.4.3.5.4.3.3.3.3.3.3.3.$.$ ; e 9 H 1.{ 3.3.3.3.3.5.3.3.3.O.! ",
"$.3.:.3.3.{ D D D 9 l l D D l +  .5.:.:.:.:.:.:.O.O.1.1.1.Z l ;  .| 5.3.5.3.3.3.3.3.:.3.3.:.u t d l e y { 3.3.6.$.$.$.:.3.:.u t ",
"$.:.3.:.3.:.H D 9 e D 9 H H H + d :.:.:.:.:.:.$.$.O.<.1.D q D l D D { 5.3.3.:.3.3.:.3.3.3.3.O.= D D l ~ { { 3.$.:.$.3.3.:.:.u z ",
"$.$.:.3.:.3.~ y y H H H 9 H 1.; O.$.:.O.O.O.:.O.O.:.r d e H H 9 H H H { 3.$.3.3.3.3.3.3.3.3.$ H H H 9 D D l l D D { $.:.3.$.u t ",
"$.u u u O.O.O.r 1.1.1.Z X   r ! O.0 u 0 u u u 0 u u u u @ H $ 4 Z 1.1.1.r O.u O.. O.O.u u 0 r 1.H 9 H H H 9 9 l H H r O.u u O.z ",
"t t t t t z t z <.1.D + 4 ; z z z z z z z t z t t t t z z z ; ; o l 1.<.= z t z t t ! z ! z z ; ; + 1.H 9 o + Z 1.1.1.4 z z z z ",
"3.8.4.4.3.:.$.O.$.4 o.>.r.8.8.4.4.:.8.8.4.3.:.$.$.z 8.t.r.w.w. . .D l D  .3.:.$.$.! z 8.t.e.8.8.8.~ o.f s y l q D 1.<.-.8.8.8.3.",
"3.4.:.:.:.$.:.$.0 z e.5.3.3.3.4.5.8.5.3.3.:.3.:.u t e.5.3.3.3. .H H H 9 H H 3.:.u z ! w.5.3.3.3.4.8.5.{ y D D l X + o.| :.:.:.:.",
"5.:.:.:.:.:.$.:.u t 8.3.3.3.4.5.3.5.3.3.3.3.:.3.O.z 8.3.3.3.4.| 1.H 9 l | H 3.3.O.! 8.8.3.3.3.5.5.5.3.{ { 9 H H H ; 4.:.:.:.:.5.",
"O.:.:.:.:.:.:.:.0 z $.:.3.3.3.6.$.3.3.3.3.3.3.3.u t 8.3.3.8.3.{ | a q l D l { :.u t 3.:.3.3.3.6.$.{ l l D D 9 H 1.; O.$.:.:.:.3.",
"O.:.:.:.:.:.:.$.0 z :.3.3.6.$.$.$.3.3.3.3.3.3.:.u z :.3.3.6.$.$.{ q H H H 9 l l D D :.3.:.3.3.$.d l 9 H H H y e $ z $.:.:.:.:.O.",
"u :.:.O.O.:.:.O.0 z :.$.$.$.$.$.:.3.3.$.$.3.3.$.u z :.$.$.$.$.:.{ 1.1.1.Z e H H H 9 l :.3.3.:.O.D l D 9 H 1.{ d u z $.O.O.:.$.u ",
"u u u u u u 0 0 u ! $.u u u O.u O.0 0 u O.O.u u O.! $.u u u O.O.r <.1.D % % 1.H 9 o l D D u u H H H 9 % % r u u O.! O.0 0 0 0 0 ",
"z t z z z z z z z z t z z z t = t z t z z t t z z t z t t t t t t z = ; ; = 4 = * ; 9 H H H l 1.H 9 ; ; ; t t t t t z t z z t t ",
"t.w.8.8.8.8.4.4.4.4.3.:.$.$.Z Z Z 4.4.4.4.O.4.:.O.O.O.$.$.O.! 8.w.8.8.8.8.$.3.3.4.4.y 9 H 1.D s } o.8.8.4.4.:.:.O.O.O.$.$.O.! 8.",
"3.3.8.5.3.5.5.3.3.3.5.3.:.u 9 D D D :.:.:.:.3.4.:.O.$.$.:.0 z 8.5.3.3.3.3.3.3.3.5.3.| y D l Z Z Z { 3.:.:.3.4.:.:.O.$.:.O.0 ! w.",
":.3.:.3.3.3.3.3.3.5.3.3.3.O.* 9 D D 3.:.:.:.:.:.:.:.$.:.$.0 ! 8.3.3.4.3.3.3.3.3.3.3.{ H H H 9 D D D ~ 5.3.:.:.:.:.:.:.:.O.0 z :.",
"3.:.3.3.3.3.6.$.$.$.:.3.:.u = l ~ d :.:.:.:.$.:.:.O.$.:.$.u z 8.5.3.3.3.3.3.3.$.$.d 1.1.1.Z + 9 D D :.5.:.:.:.:.:.$.:.:.$.0 t $.",
":.3.:.3.3.3.$.:.$.3.3.:.:.$ D D l ~ $.:.$.:.:.:.$.O.:.$.:.0 z :.3.3.3.3.3.3.:.Z Z Z <.1.l X 4 ~ | ~ 5.:.:.$.:.:.$.:.:.:.:.u t $.",
"$.:.3.:.3.3.3.$.3.$.:.3.$.H H H 9 Z Z Z :.$.:.:.$.O.$.$.O.0 z $.:.3.$.$.$.3.D D D 9 l D q $ z $.:.:.:.:.O.:.:.:.:.:.:.:.:.0 t $.",
"u u u O.u O.O.O.O.O.O.u $ 1.H 9 D 9 D D D u u u u u 0 0 0 u ! O.u O.u O.O.O.D D 9 l % X $ O.! O.0 u 0 u u 0 u . u u 0 0 0 u t $.",
"t z z ! ! z ! z z z z t t = o o + D 9 D D ! z Z D D D l z z D D D ; t t t t ; Z l D + = t t t t z t z t t ! z ! z z z z z z z z ",
"3.:.$.$.! 4.e.8.8.8.3.3.8.4. .y H H H 9 l D l 9 H H H s l H H H Z Z Z $.z 8.>.9 H H H  .4.4.4.4.3.:.$.t ! z 8.t.e.8.8.8.:.8.8.4.",
":.3.:.u z 8.5.:.:.:.:.3.4.:.~ 1.1.1.Z   D H 9 y Z 1.1.1.f 1.H 9 9 D D D = D D l Z 1.1.1.| 3.3.3.5.3.:.u z ! w.5.3.3.3.4.8.5.3.3.",
"3.:.3.O.z 4.:.:.:.:.5.5.:.:.~ <.1.D e $ H H 9 y y D 1.<.| y y y D 9 D D H H H 9 y D 1.<.{ 3.3.5.3.3.3.O.! 8.8.3.3.3.5.5.5.3.3.3.",
"3.3.3.u z O.$.:.:.:.3.O.:.:.:.~ ~ ~ ~ @ ; 1.e { { { ..d { { y H H H 9 $ 1.H 9 y f y y | ..$.$.$.:.3.:.u t 3.:.3.3.3.6.$.3.3.3.3.",
"3.3.:.u z $.:.:.:.:.O.O.:.:.:.:.:.:.$.0 z ~ { { 6.$.$.$.3.3.{ 1.H 9 l $ + l D D ..d d { $.:.$.3.3.:.:.u t :.3.:.3.3.$.$.3.3.3.3.",
"3.3.$.u z $.O.O.:.$.u u :.:.O.O.:.:.O.0 z :.$.$.$.$.$.:.3.3.$.d y y l X ; l H H H d :.3.3.$.3.$.:.3.$.u t $.:.3.3.:.O.O.3.3.$.$.",
"O.u u O.! O.0 0 0 0 0 u u u u u u 0 0 u ! 0 u u u O.u O.0 0 u O.r X D D l q 9 H 1.r O.O.O.O.O.O.O.u u O.t $.u O.u u u O.O.O.O.O.",
"t t t z t z z t t z z t z t t t t t t z t z z t ! t ! z t t t t ; H H H 9 + ; = = t t t z t z z t t z t z z z z z z z z t z z z ",
"! 8.w.8.8.8.8.$.8.:.$.$.$.:.:.$.! 8.w.8.8.8.8.$.3.3.4.4.3.:.$.$.1.1.1.Z } o.8.8.:.:.$.$.$.:.:.O.! 8.t.w.8.8.8.8.4.4.4.4.3.:.$.$.",
"z 8.5.3.3.3.3.3.4.8.3.$.:.:.3.u z 8.5.3.3.3.3.3.3.3.5.3.5.3.:.$ <.1.D Z Z Z 3.4.8.3.3.$.:.3.$.u ! w.3.3.8.5.3.5.5.3.3.3.5.3.:.u ",
"! 8.3.3.4.3.3.3.3.3.3.3.:.3.:.u ! 8.3.3.4.3.3.3.3.3.3.3.3.3.3.Z Z Z y 9 D D D 3.3.3.3.3.3.3.$.u z :.:.3.:.3.3.3.3.3.3.5.3.3.3.O.",
"t $.3.:.3.3.3.3.:.3.3.$.:.3.:.O.z 8.5.3.3.3.3.3.3.$.$.$.:.3.D D D 9 D D 9 D D 3.3.3.3.:.3.3.:.u t $.3.:.3.3.3.3.6.$.$.$.:.3.:.u ",
"z $.:.3.:.3.:.3.3.3.:.$.3.:.3.u z :.3.3.3.3.3.3.:.:.$.3.3.:.D D 9 9 H H H { 3.:.3.3.:.3.3.3.3.O.t $.:.3.:.3.3.3.$.:.$.3.3.:.:.u ",
"t $.$.:.3.:.3.:.3.3.:.$.:.:.$.u z $.:.3.$.$.$.3.$.$.3.$.:.3.$.$ ; D 9 H 1.{ $.3.3.3.3.3.3.3.3.u t $.$.:.3.:.3.3.3.$.3.$.:.3.$.u ",
"z $.u u u O.O.O.O.O.O.O.u u 0 O.! $.u O.u O.O.O.u O.O.O.O.u u r 4 % l % X r r u O.. O.O.u u 0 O.t $.u u u O.u O.O.O.O.O.O.u u O.",
"t t z t z ! ! ! z ! z z z z z z z z t z t t t t z z z z z t t t = = D l D D D 4 z ! z z z z z z z z t z z ! ! z ! z z z z t t t ",
"8.4.3.:.$.:.! 8.t.r.8.8.4.4.:.8.8.4.3.:.$.$.z 8.t.r.w.w.4.4.4.4. .H H H 9 H H H  .e.8.4.4.4.$.8.8.3.:.$.O.O.! w.t.r.8.8.4.4.8.8.",
"3.3.:.3.:.u z e.5.3.3.3.4.5.8.5.3.3.:.3.:.u t e.5.3.3.3.4.5.5.3.{ 1.H 9 e Z 1.1.1.| :.:.:.3.8.5.:.:.$.:.$.0 z e.5.3.3.3.3.4.8.3.",
"3.3.3.:.3.O.t 8.3.3.3.4.5.3.5.3.3.3.3.:.3.O.z 8.3.3.3.4.5.3.3.3.3.| y y y l D 1.<.~ :.:.5.5.5.:.:.:.:.$.:.u z 8.3.3.3.3.5.5.3.3.",
"3.3.3.3.3.u z $.:.3.3.3.6.$.3.3.3.3.3.3.3.u t 8.3.3.8.3.3.5.6.$.$.$.~ y l l D e q ~ :.:.3.O.:.:.:.:.:.:.:.0 z $.:.3.3.3.6.$.3.3.",
"3.3.3.3.:.u z :.3.3.6.$.$.$.3.3.3.3.3.3.:.u z :.3.3.6.$.$.3.$.:.$.D D D 9 H H H ~ $.:.:.O.O.:.:.:.:.:.:.$.0 z :.3.3.3.3.$.$.3.3.",
"$.$.3.3.$.0 z :.$.$.$.$.$.:.=.3.$.$.3.3.$.u z :.$.$.$.$.:.3.3.$.H H H 9 q 9 H 1.d :.:.$.w u :.:.O.O.:.:.O.0 z :.$.$.3.:.O.O.3.3.",
"O.O.O.w 0 O.k $.u u u O.u n & 0 u O.O.u u O.! $.u u u O.O.Z Z Z 1.H 9 Z Z Z = @ 0 u 0 K & u u u u u u 0 0 u ! $.u u u u u O.O.[ ",
"6 j z 6 t t ; t t z t z 6 P 5 z t z z z z z z z z t z z D D D 9 D o O 9 D D D z t z t P b t t t z t z z t ! 5 ! z t t t t z C j ",
"' 0.*.] *.:...{ X.$.:.:.{ Y *.q.9.8.8.8.8.4.4.4.4.3.:.$.A D 9 H H H ^ x 7 D A $.X.X...( { h 4.#.4.4.,.4.O.:.#.+.3.:.$.[ O.6 ` 7.",
"_ &.( W &.8.( +.X.( 3.X.- Y G =.( 8.5.=.5.;.3.3.=.@.3.:.- U D Z 1.N R p =.4.2.W { #...W - C 8.@.#.E ..:...:.#.) :.;.:.X.& ; ' &.",
"Q 2 ) Q +.=.( W =.+.F X.- C 1 #.+.( 3.=.( +.W +.;.( +.F 8 8 D 3 8 N L < =.+.=.( F #.+.( - ^ ,...#.W ..#...#...( ..#...( - b Q +.",
"Q 2 F W F =.+.W ..( ( #.- > m +...( 2 +.W %./ m { ( ( S H S 9 3 ~ p b 2 +...+.W m ..W ( g b _ @...( ..M ..E g J g / ../ # U Q F ",
"F ) F ( M ( +.M +.F W 2 T C 1 M +.M ( +.W 1 E m +.+.M 1.H : Z Z Z ..F 1 +.( +.1 m +.E F V 6 m ..E ( ....( E { T M 1 { E V b ( 2 ",
"( 2 ( / F 2 +.F ( 2 W 2 I > / 1 ( F ( F W 2 m 2 { M ( d X l 9 D D c 1 +.1 F ( 1 E ( 1 / b 6 n E ( < T n 1 T < E n 1 1 T > , ( 2 ",
"< b < J > < B < n > b V < b 1 > V > n > J n < < J n > u r l d 9 D c < n < J < J T > > V < b > > V > V > I > > V > V v V b b 1 > "
};
