/* XPM */
static char *north_wall_xpm[] = {
"32 32 4 1",
"# c #AA4422",
". c #884433",
"o c #662211",
"+ c #441100",
"################################",
"#......oo......oo......oo......#",
"#......oo......oo......oo......#",
"#......oo......oo......oo......#",
"#oooooooooooooooooooooooooooooo#",
"#oo......oo......oo......oo....#",
"#oo......oo......oo......oo....#",
"#oo......oo......oo......oo....#",
"#oooooooooooooooooooooooooooooo#",
"#......oo......oo......oo......#",
"#......oo......oo......oo......#",
"#......oo......oo......oo......#",
"#oooooooooooooooooooooooooooooo#",
"#oo......oo......oo......oo....#",
"#oo......oo......oo......oo....#",
"#oo......oo......oo......oo....#",
"#oooooooooooooooooooooooooooooo#",
"#......oo......oo......oo......#",
"#......oo......oo......oo......#",
"#......oo......oo......oo......#",
"#oooooooooooooooooooooooooooooo#",
"#oo......oo......oo......oo....#",
"#oo......oo......oo......oo....#",
"#oo......oo......oo......oo....#",
"#oooooooooooooooooooooooooooooo#",
"#......oo......oo......oo......#",
"#......oo......oo......oo......#",
"#......oo......oo......oo......#",
"#oooooooooooooooooooooooooooooo#",
"#oo......oo......oo......oo....#",
"#oo......oo......oo......oo....#",
"################################"
};