/* XPM */
static char *south_wall_xpm[] = {
"32 32 4 1",
"# c #666666",
". c #555555",
"o c #444444",
"+ c #333333",
"################################",
"#..............................#",
"#.o.o..o...o.o.....o..o.o......#",
"#..........o.....o.............#",
"#...o...........o..............#",
"#.......o......................#",
"#oooooooooooooooooooooooooooooo#",
"#..............................#",
"#....o..o......................#",
"#..........o...................#",
"#......o.....o.................#",
"#.............o................#",
"#..............................#",
"#oooooooooooooooooooooooooooooo#",
"#..............................#",
"#.o............................#",
"#......o.......................#",
"#..................o...........#",
"#.......................o......#",
"#..............................#",
"#oooooooooooooooooooooooooooooo#",
"#..............................#",
"#........o.....................#",
"#...................o..........#",
"#..............................#",
"#...o..........................#",
"#..............................#",
"#oooooooooooooooooooooooooooooo#",
"#..............................#",
"#.............o................#",
"#..............................#",
"################################"
};